<svg xmlns="http://www.w3.org/2000/svg" xmlns:xlink="http://www.w3.org/1999/xlink" width="500" zoomAndPan="magnify" viewBox="0 0 375 374.999991" height="500" preserveAspectRatio="xMidYMid meet" version="1.0"><defs><clipPath id="d811de0991"><path d="M 37.5 91.125 L 334 91.125 L 334 283.875 L 37.5 283.875 Z M 37.5 91.125 " clip-rule="nonzero"/></clipPath></defs><g clip-path="url(#d811de0991)"><path fill="#12143e" d="M 316.023438 243.734375 C 301.882812 265.628906 281.042969 277.882812 255.679688 279.9375 C 230.0625 282.003906 204.191406 281.285156 178.453125 281.152344 C 174.917969 281.132812 170.285156 278.1875 168.066406 275.191406 C 147.429688 247.289062 127.195312 219.078125 106.914062 190.910156 C 103.503906 186.175781 104.34375 184.808594 110.039062 183.128906 C 117.347656 180.960938 125.019531 179.269531 131.640625 175.707031 C 148.136719 166.78125 154.6875 149.230469 150 129.523438 C 146.042969 112.875 132.5625 101.679688 114.484375 100.414062 C 108.480469 100.011719 102.429688 100.113281 96.40625 100.394531 C 89.898438 100.699219 87.246094 103.441406 86.730469 109.9375 C 86.398438 114.128906 86.304688 118.339844 86.304688 122.539062 C 86.265625 148.90625 86.285156 175.273438 86.285156 283.765625 L 60.980469 227.925781 C 60.871094 135.953125 60.820312 126.101562 60.3125 116.273438 C 59.515625 100.585938 54.191406 96.316406 41.570312 94.472656 C 40.203125 94.261719 38.898438 93.59375 37.5 91.914062 C 38.898438 91.679688 40.285156 91.234375 41.679688 91.246094 C 71.8125 91.640625 101.964844 91.46875 132.066406 92.734375 C 153.230469 93.632812 170.34375 102.894531 178.492188 123.683594 C 188.402344 149.019531 174.96875 174.777344 147.480469 184.515625 C 145.414062 185.253906 143.289062 185.808594 141.214844 186.507812 C 135.382812 188.453125 134.847656 189.929688 138.550781 195.019531 C 153.15625 215.121094 167.882812 235.140625 182.460938 255.261719 C 190.679688 266.609375 201.546875 272.90625 215.585938 274.121094 C 237.09375 275.972656 257.328125 273.167969 273.917969 257.976562 C 288.128906 244.96875 296.78125 228.582031 299.808594 209.617188 C 303.25 188.058594 302.925781 166.769531 293.96875 146.164062 C 280.394531 114.917969 247.894531 96.742188 214.21875 102.023438 C 210.800781 102.5625 207.367188 103.097656 203.9375 103.601562 C 196.214844 104.726562 194.320312 106.4375 192.632812 114.363281 C 187.023438 107.339844 181.621094 100.578125 175.234375 92.570312 C 183.472656 92.570312 190.304688 92.613281 197.125 92.570312 C 219.980469 92.390625 242.8125 92.074219 265.394531 96.730469 C 295.941406 103.027344 316.488281 120.769531 326.457031 150.292969 C 337.480469 182.976562 334.988281 214.363281 316.023438 243.734375 Z M 316.023438 243.734375 " fill-opacity="1" fill-rule="nonzero"/></g></svg>