<svg version="1.1" xmlns="http://www.w3.org/2000/svg" xmlns:xlink="http://www.w3.org/1999/xlink"
	 x="0px" y="0px" width="100%" height="100%"
	 viewBox="0 0 605 629" style="enable-background:new 0 0 605 629;" xml:space="preserve">
<g>
	<g>
		<g>
			<path clip-rule="evenodd" fill-rule="evenodd" fill="#2A2AFF" d="M469.4,401.9L204.8,562.6l97.5,55.7l264.6-161.9v-124l-97.5-56.9V401.9z M422.5,104.6L132.6,262.8v-48.1
				l262-154.3L297.2,4.7l-262,153.1l-1.3,270.7l289.9-159.4l1.3,53.1L55.4,477.8l97.5,55.7l268.4-155.6L422.5,104.6z M469.4,103.4
				l-1.3,115.1l98.7,55.7V160.3L469.4,103.4z"/>
		</g>
		<g>
			<path fill="none" stroke="#5E9EF9" stroke-miterlimit="100" d="M469.4,401.9L204.8,562.6l97.5,55.7l264.6-161.9v-124l-97.5-56.9V401.9z M422.5,104.6L132.6,262.8v-48.1
				l262-154.3L297.2,4.7l-262,153.1l-1.3,270.7l289.9-159.4l1.3,53.1L55.4,477.8l97.5,55.7l268.4-155.6L422.5,104.6z M469.4,103.4
				l-1.3,115.1l98.7,55.7V160.3L469.4,103.4z"/>
		</g>
	</g>
</g>
<g>
	<g>
		<g>
			<polygon clip-rule="evenodd" fill-rule="evenodd" fill="#4BFF2A" points="469.4,103.4 468.1,218.5 566.8,274.1 566.8,160.3 			"/>
		</g>
		<g>
			<polygon fill="none" stroke="#5E9EF9" stroke-miterlimit="100" points="469.4,103.4 468.1,218.5 566.8,274.1 566.8,160.3 			"/>
		</g>
	</g>
</g>
</svg>
